<svg width="161" height="20" viewBox="0 0 161 20" fill="none" xmlns="http://www.w3.org/2000/svg">
    <g clip-path="url(#clip0_631_7644)">
      <path
        d="M31.6489 11.3284C31.647 14.0703 29.7644 16.2908 27.0245 16.2908C24.2846 16.2908 22.402 14.0703 22.3981 11.3304V0.812896H19.0326V11.3246C19.0326 14.0664 20.3553 16.4974 22.3981 18.015C23.7845 19.0461 25.1631 19.6563 27.0245 19.6563C28.8859 19.6563 30.2626 19.0461 31.6489 18.015C33.6918 16.4974 35.0164 14.0645 35.0164 11.3246V0.812896H31.6489V11.3284Z"
        fill="#05C3DD"
      />
      <path
        d="M69.0055 1.89612C67.6192 0.865033 65.9007 0.254877 64.0393 0.254877C62.178 0.254877 60.4595 0.865033 59.0731 1.89612C57.0303 3.41379 55.7057 5.84669 55.7057 8.58659V19.1601H59.0731V8.58273C59.0751 5.84089 61.2975 3.62039 64.0393 3.62039C66.7812 3.62039 69.0017 5.84089 69.0055 8.5808V19.162H72.371V8.58659C72.371 5.84475 71.0484 3.41379 69.0055 1.89612Z"
        fill="#05C3DD"
      />
      <path
        d="M120.347 1.64124C118.961 0.610156 117.243 0 115.381 0C113.52 0 111.803 0.610156 110.415 1.64124C108.442 3.10871 107.142 5.42962 107.057 8.0556V11.9444C107.142 14.5723 108.442 16.8913 110.415 18.3587C111.801 19.3898 113.52 20 115.381 20C117.243 20 118.961 19.3898 120.347 18.3587C122.321 16.8913 123.62 14.5704 123.705 11.9444H123.713V8.0556H123.705C123.62 5.42769 122.321 3.10871 120.347 1.64124ZM120.347 8.33944V11.6779C120.344 14.4178 118.123 16.6383 115.381 16.6383C112.639 16.6383 110.417 14.4178 110.415 11.676V8.33172C110.417 5.58988 112.639 3.36937 115.381 3.36937C118.123 3.36937 120.344 5.58988 120.347 8.32979V8.34137V8.33944Z"
        fill="#05C3DD"
      />
      <path d="M97.2233 0.859238H93.8559V19.33H105.638V15.9799H97.2233V0.859238Z" fill="#05C3DD" />
      <path
        d="M78.1849 8.58273C78.1849 5.84089 80.4093 3.62039 83.1511 3.62039C85.4527 3.62039 87.3836 5.18826 87.9455 7.31415H91.3805C91.0426 5.10137 89.8358 3.17436 88.1154 1.89612C86.729 0.865033 85.0106 0.254877 83.1492 0.254877C81.2878 0.254877 79.5694 0.865033 78.183 1.89612C76.2096 3.36358 74.9102 5.68449 74.8252 8.31048V11.6914C74.9102 14.3194 76.2096 16.6403 78.183 18.1058C79.5694 19.1369 81.2878 19.747 83.1492 19.747C85.0106 19.747 86.729 19.1369 88.1154 18.1058C89.8358 16.8276 91.0407 14.9006 91.3805 12.6878H87.9455C87.3836 14.8117 85.4527 16.3815 83.1511 16.3815C80.4093 16.3815 78.1868 14.161 78.1849 11.4192V8.58273Z"
        fill="#05C3DD"
      />
      <path
        d="M138.666 11.4501C138.664 14.1919 136.781 16.4124 134.041 16.4124C131.301 16.4124 129.419 14.1919 129.415 11.452V0.859238H126.047V11.4462C126.047 14.1881 127.372 16.619 129.415 18.1367C130.801 19.1678 132.18 19.7779 134.041 19.7779C135.903 19.7779 137.279 19.1678 138.666 18.1367C140.709 16.619 142.033 14.1861 142.033 11.4462V0.859238H138.666V11.4501Z"
        fill="#05C3DD"
      />
      <path
        d="M49.1755 13.5219C49.7354 13.1164 52.3518 11.06 52.3518 7.97644C52.3518 6.42595 51.8633 4.94883 50.9403 3.70728C49.6833 2.01583 47.7833 0.978951 45.6941 0.834136L37.6424 0.812896V19.33H41.0098V4.15331H45.1921C48.044 4.15331 49.776 7.18864 48.5576 9.71036C47.737 11.4095 45.0144 12.3692 44.1803 12.6298C44.0625 12.6665 44.0181 12.8094 44.0953 12.9079C45.0009 14.0471 49.2643 19.2585 49.3319 19.33H53.6107C53.5335 19.2334 49.7547 14.4584 49.1523 13.6976C49.1079 13.6416 49.1195 13.5644 49.1755 13.5219Z"
        fill="#05C3DD"
      />
      <path
        d="M151.956 0.859239H144.582V19.3744H151.954C156.988 19.2817 160.699 15.1709 160.699 10.1158C160.699 5.06082 156.988 0.951921 151.956 0.857308V0.859239ZM151.78 16.0089H147.947V4.22475H151.78C155.034 4.22475 157.671 6.86232 157.671 10.1158C157.671 13.3694 155.034 16.0069 151.78 16.0069V16.0089Z"
        fill="#05C3DD"
      />
      <path
        d="M0 4.17841H6.64413V18.9283H10.0116V4.17841H16.6615V0.812896H0V4.17841Z"
        fill="#05C3DD"
      />
    </g>
    <defs>
      <clipPath id="clip0_631_7644">
        <rect width="160.833" height="20" fill="white" />
      </clipPath>
    </defs>
  </svg>